<svg width="24" height="24" viewBox="0 0 24 24" fill="none" xmlns="http://www.w3.org/2000/svg">
<path d="M5 4.99147C5 4.0203 5 3.53472 5.20249 3.26705C5.37889 3.03386 5.64852 2.88956 5.9404 2.87213C6.27544 2.85213 6.67946 3.12148 7.48752 3.66018L18.0031 10.6706C18.6708 11.1157 19.0046 11.3382 19.1209 11.6188C19.2227 11.864 19.2227 12.1397 19.1209 12.3849C19.0046 12.6654 18.6708 12.888 18.0031 13.3331L7.48752 20.3435C6.67946 20.8822 6.27544 21.1515 5.9404 21.1315C5.64852 21.1141 5.37889 20.9698 5.20249 20.7366C5 20.469 5 19.9834 5 19.0122V4.99147Z" stroke="white" stroke-width="2" stroke-linecap="round" stroke-linejoin="round"/>
</svg>
