<svg width="199" height="238" viewBox="0 0 199 238" fill="none" xmlns="http://www.w3.org/2000/svg">
<path d="M199 33.6617V0H187.493L137.704 115.033C107.409 123.153 79.4601 137.115 54.6204 156.546C48.0257 161.687 41.5683 167.326 35.4745 173.264C34.6039 174.076 33.7731 174.903 32.9178 175.757L28 180.673H61.6001L62.4065 179.98C65.9773 176.919 69.8535 173.85 73.9283 170.854C89.8089 159.188 107.156 149.855 125.584 143.056L84.4879 238H113.873L156.865 134.192C170.583 131.425 184.784 130.04 199 130.043V106.987C188.349 106.987 177.688 107.695 167.208 109.114L198.771 33.1156L199 33.6648V33.6617Z" fill="#D0B281"/>
<path d="M60.9369 195.89C60.9369 206.359 52.4462 214.874 42.0076 214.874C31.5691 214.874 23.0601 206.359 23.0601 195.89V193H0V195.89C0 219.111 18.8437 238 42.0076 238C65.1715 238 84 219.108 84 195.89V193H60.9399V195.89H60.9369Z" fill="#D0B281"/>
</svg>
