<svg width="190" height="142" viewBox="0 0 190 142" fill="none" xmlns="http://www.w3.org/2000/svg">
<path d="M66.0791 2.677C70.1647 1.71368 73.9033 4.8844 73.9033 8.94458V25.5696C73.9032 28.4365 72.0363 30.8849 69.4326 31.7981C55.3342 36.7415 46.0545 44.6474 41.1904 55.3831C38.9976 60.3362 37.8596 65.4132 37.7607 70.6311C37.7501 71.1906 38.2385 71.8157 39.0898 71.8157H68.5889C72.1786 71.8157 75.0887 74.7259 75.0889 78.3157V132.088C75.0889 135.678 72.1787 138.588 68.5889 138.588H9C5.41015 138.588 2.5 135.678 2.5 132.088V86.5295C2.5 62.6548 8.2076 43.4733 19.9082 29.2737L19.9141 29.2678L19.9199 29.261C30.8705 16.1562 46.3256 7.33469 66.0791 2.677ZM178.453 2.71704C182.55 1.72087 186.314 4.89846 186.314 8.97192V25.55C186.314 28.4333 184.428 30.8869 181.813 31.7942C167.928 36.6133 158.726 44.6505 153.853 55.8206L153.839 55.8528L153.824 55.884C151.391 61.0651 150.18 66.0106 150.111 70.7405C150.105 71.2133 150.531 71.8155 151.383 71.8157H181C184.59 71.8157 187.5 74.7259 187.5 78.3157V132.088C187.5 135.678 184.59 138.588 181 138.588H121.411C117.821 138.588 114.911 135.678 114.911 132.088V86.5295C114.911 62.3378 120.78 43.0564 132.825 29.0022L132.831 28.9954L132.836 28.9895C144.031 16.1043 159.291 7.37643 178.453 2.71704Z" fill="#D5BA8C" stroke="#F4F6F6" stroke-width="5"/>
</svg>
