<svg width="50" height="50" viewBox="0 0 50 50" fill="none" xmlns="http://www.w3.org/2000/svg">
<path d="M43.2188 21.875H42.1875C41.7731 21.875 41.3757 22.0396 41.0826 22.3326C40.7896 22.6257 40.625 23.0231 40.625 23.4375C40.625 23.8519 40.7896 24.2493 41.0826 24.5424C41.3757 24.8354 41.7731 25 42.1875 25H43.2188C43.3596 25 43.4948 25.056 43.5944 25.1556C43.694 25.2552 43.75 25.3904 43.75 25.5313V41.6562C43.75 41.7971 43.694 41.9323 43.5944 42.0319C43.4948 42.1315 43.3596 42.1875 43.2188 42.1875H6.78125C6.64035 42.1875 6.50523 42.1315 6.4056 42.0319C6.30597 41.9323 6.25 41.7971 6.25 41.6562V25.5313C6.25 25.3904 6.30597 25.2552 6.4056 25.1556C6.50523 25.056 6.64035 25 6.78125 25H21.875C22.2894 25 22.6868 24.8354 22.9799 24.5424C23.2729 24.2493 23.4375 23.8519 23.4375 23.4375C23.4375 23.0231 23.2729 22.6257 22.9799 22.3326C22.6868 22.0396 22.2894 21.875 21.875 21.875H6.78125C6.3011 21.875 5.82566 21.9696 5.38206 22.1533C4.93847 22.3371 4.53541 22.6064 4.19589 22.9459C3.85638 23.2854 3.58706 23.6885 3.40332 24.1321C3.21957 24.5757 3.125 25.0511 3.125 25.5313V41.6562C3.125 42.6259 3.51021 43.5559 4.19589 44.2416C4.88157 44.9273 5.81155 45.3125 6.78125 45.3125H43.2188C44.1884 45.3125 45.1184 44.9273 45.8041 44.2416C46.4898 43.5559 46.875 42.6259 46.875 41.6562V25.5313C46.875 25.0511 46.7804 24.5757 46.5967 24.1321C46.4129 23.6885 46.1436 23.2854 45.8041 22.9459C45.4646 22.6064 45.0615 22.3371 44.6179 22.1533C44.1743 21.9696 43.6989 21.875 43.2188 21.875Z" fill="white"/>
<path d="M27.0312 31.4379C27.2517 31.5569 27.4995 31.6161 27.75 31.6098C28.0117 31.6111 28.2696 31.5466 28.5 31.4223L33.4219 28.6723C33.6962 28.5225 33.9194 28.2939 34.0625 28.016L42.625 11.3442L43.3281 11.7035C43.5081 11.7971 43.6446 11.9571 43.7087 12.1496C43.7729 12.342 43.7597 12.5519 43.6719 12.7348L41.1562 17.6254C40.9698 17.9925 40.9357 18.4184 41.0615 18.8105C41.1873 19.2025 41.4628 19.5291 41.8281 19.7192C42.0505 19.8331 42.297 19.892 42.5469 19.891C42.8338 19.8916 43.1153 19.8132 43.3606 19.6644C43.6059 19.5155 43.8055 19.302 43.9375 19.0473L46.4375 14.1723C46.9092 13.2539 46.9981 12.1861 46.6848 11.2023C46.3715 10.2185 45.6815 9.39879 44.7656 8.92228L43.75 8.4379C43.8813 7.47973 43.7131 6.50438 43.2683 5.6456C42.8235 4.78681 42.124 4.08662 41.2656 3.64103C40.1656 3.0925 38.8941 2.99803 37.725 3.37797C36.556 3.7579 35.583 4.58184 35.0156 5.67228L25.7187 23.7348C25.58 24.0098 25.5257 24.3196 25.5625 24.6254L26.1875 30.2348C26.2187 30.4891 26.312 30.7319 26.4591 30.9417C26.6062 31.1515 26.8027 31.3219 27.0312 31.4379ZM37.7812 7.09415C37.9709 6.72973 38.2965 6.45467 38.6875 6.32853C38.8842 6.26361 39.0919 6.23847 39.2985 6.25456C39.505 6.27066 39.7063 6.32767 39.8906 6.42228C40.0789 6.5108 40.2476 6.63603 40.3868 6.79062C40.526 6.94521 40.633 7.12605 40.7014 7.32253C40.7698 7.51901 40.7983 7.72717 40.7851 7.9348C40.772 8.14243 40.7176 8.34535 40.625 8.53165L31.5625 26.1723L29.0937 27.5473L28.7812 24.7504L37.7812 7.09415Z" fill="white"/>
<path d="M10.9375 32.8125H21.875C22.2894 32.8125 22.6868 32.6479 22.9799 32.3549C23.2729 32.0618 23.4375 31.6644 23.4375 31.25C23.4375 30.8356 23.2729 30.4382 22.9799 30.1451C22.6868 29.8521 22.2894 29.6875 21.875 29.6875H10.9375C10.5231 29.6875 10.1257 29.8521 9.83265 30.1451C9.53962 30.4382 9.375 30.8356 9.375 31.25C9.375 31.6644 9.53962 32.0618 9.83265 32.3549C10.1257 32.6479 10.5231 32.8125 10.9375 32.8125Z" fill="white"/>
<path d="M10.9375 37.5H35.9375C36.3519 37.5 36.7493 37.3354 37.0424 37.0424C37.3354 36.7493 37.5 36.3519 37.5 35.9375C37.5 35.5231 37.3354 35.1257 37.0424 34.8326C36.7493 34.5396 36.3519 34.375 35.9375 34.375H10.9375C10.5231 34.375 10.1257 34.5396 9.83265 34.8326C9.53962 35.1257 9.375 35.5231 9.375 35.9375C9.375 36.3519 9.53962 36.7493 9.83265 37.0424C10.1257 37.3354 10.5231 37.5 10.9375 37.5Z" fill="white"/>
</svg>
