<svg width="282" height="48" viewBox="0 0 282 48" fill="none" xmlns="http://www.w3.org/2000/svg">
<path d="M97.9096 47.9963C96.2341 47.9963 94.8398 47.4603 93.7228 46.3921C92.6058 45.3238 92.0474 43.9967 92.0474 42.4143C92.0474 40.8319 92.5839 39.534 93.6535 38.4548C94.723 37.3755 96.0808 36.8359 97.7271 36.8359C99.512 36.8359 100.965 37.4229 102.082 38.6006L100.545 40.121C99.7931 39.3517 98.855 38.9652 97.7271 38.9652C96.7123 38.9652 95.8837 39.3006 95.2376 39.9678C94.5916 40.6387 94.2703 41.4518 94.2703 42.4143C94.2703 43.3768 94.5989 44.23 95.2595 44.8863C95.9202 45.5389 96.7963 45.867 97.895 45.867C98.9097 45.867 99.6653 45.6738 100.162 45.291V43.4206H97.8329V41.3533H102.308V46.4176C101.83 46.9244 101.198 47.3145 100.414 47.588C99.6288 47.8614 98.7929 47.9999 97.9096 47.9999V47.9963Z" fill="#D5BA8C"/>
<path d="M111.288 47.8114V37.0156H115.431C116.416 37.0156 117.216 37.3182 117.829 37.9271C118.442 38.536 118.749 39.2944 118.749 40.2095C118.749 41.6278 118.008 42.5648 116.526 43.0242L120.409 47.815H117.745L114.029 43.2685H113.496V47.815H111.288V47.8114ZM113.496 41.3799H115.171C115.598 41.3799 115.934 41.2778 116.183 41.07C116.431 40.8621 116.555 40.5741 116.555 40.2095C116.555 39.8449 116.431 39.5569 116.183 39.3491C115.934 39.1412 115.595 39.0391 115.171 39.0391H113.496V41.3799Z" fill="#D5BA8C"/>
<path d="M136.828 46.3632C135.736 47.4533 134.419 47.9966 132.878 47.9966C131.338 47.9966 130.02 47.4533 128.929 46.3632C127.837 45.273 127.293 43.9568 127.293 42.4182C127.293 40.8796 127.837 39.5634 128.929 38.4732C130.02 37.3831 131.338 36.8398 132.878 36.8398C134.419 36.8398 135.736 37.3831 136.828 38.4732C137.919 39.5634 138.463 40.8796 138.463 42.4182C138.463 43.9568 137.919 45.273 136.828 46.3632ZM130.495 44.8574C131.148 45.5319 131.944 45.8673 132.878 45.8673C133.813 45.8673 134.605 45.5319 135.262 44.8574C135.915 44.1829 136.244 43.3698 136.244 42.4182C136.244 41.4666 135.915 40.6535 135.262 39.979C134.608 39.3045 133.813 38.9691 132.878 38.9691C131.944 38.9691 131.152 39.3045 130.495 39.979C129.841 40.6535 129.513 41.4666 129.513 42.4182C129.513 43.3698 129.841 44.1865 130.495 44.8574Z" fill="#D5BA8C"/>
<path d="M151.509 47.9937C150.198 47.9937 149.14 47.589 148.326 46.7759C147.515 45.9665 147.106 44.891 147.106 43.5529V37.0156H149.315V43.5857C149.315 44.2967 149.512 44.8545 149.91 45.2592C150.304 45.6639 150.837 45.8681 151.509 45.8681C152.18 45.8681 152.709 45.6639 153.107 45.2592C153.502 44.8545 153.702 44.2967 153.702 43.5857V37.0156H155.911V43.5529C155.911 44.88 155.498 45.9519 154.677 46.7686C153.856 47.5853 152.801 47.9937 151.512 47.9937H151.509Z" fill="#D5BA8C"/>
<path d="M171.497 38.0625C172.22 38.7589 172.578 39.623 172.578 40.6548C172.578 41.6867 172.216 42.5544 171.497 43.2471C170.778 43.9399 169.873 44.2899 168.789 44.2899H167.402V47.8192H165.193V37.0234H168.785C169.869 37.0234 170.775 37.3698 171.494 38.0662L171.497 38.0625ZM169.975 41.7778C170.282 41.4825 170.431 41.1106 170.431 40.6512C170.431 40.1918 170.278 39.8199 169.975 39.5246C169.672 39.2293 169.263 39.0834 168.756 39.0834H167.402V42.2153H168.756C169.263 42.2153 169.669 42.0695 169.975 41.7742V41.7778Z" fill="#D5BA8C"/>
<path d="M92.0474 32.5389L100.669 12.5625H104.305L112.952 32.5389H108.67L106.725 27.9814H98.1906L96.2743 32.5389H92.0474ZM102.469 17.9367L99.7091 24.4083H105.203L102.469 17.9367Z" fill="white"/>
<path d="M117.682 32.5389V29.7533L127.231 16.4455H117.85V12.5625H132.754V15.348L123.146 28.6559H132.951V32.5389H117.682Z" fill="white"/>
<path d="M139.908 32.5389V12.5625H152.359V16.4455H143.993V20.5545H150.669V24.4375H143.993V28.6595H152.359V32.5425H139.908V32.5389Z" fill="white"/>
<path d="M159.572 32.5389V12.5625H167.234C169.055 12.5625 170.534 13.124 171.673 14.2506C172.808 15.3772 173.377 16.7846 173.377 18.4726C173.377 21.0978 172.005 22.8332 169.264 23.6791L176.447 32.5425H171.519L164.646 24.1276H163.66V32.5425H159.576L159.572 32.5389ZM163.657 20.6384H166.756C167.544 20.6384 168.168 20.4451 168.628 20.0623C169.088 19.6795 169.318 19.1472 169.318 18.4726C169.318 17.7981 169.088 17.2695 168.628 16.883C168.168 16.5002 167.544 16.3069 166.756 16.3069H163.657V20.642V20.6384Z" fill="white"/>
<path d="M181.714 32.5389V12.5625H185.799V28.6559H194.362V32.5389H181.714Z" fill="white"/>
<path d="M200.896 32.5389V12.5625H213.347V16.4455H204.981V20.5545H211.657V24.4375H204.981V28.6595H213.347V32.5425H200.896V32.5389Z" fill="white"/>
<path d="M229.744 32.8774C226.645 32.8774 224.064 31.8894 221.998 29.9096C219.932 27.9298 218.899 25.4761 218.899 22.552C218.899 19.6279 219.888 17.2179 221.87 15.2236C223.852 13.2256 226.364 12.2266 229.404 12.2266C232.711 12.2266 235.394 13.3131 237.46 15.4897L234.617 18.3044C233.226 16.8788 231.488 16.1642 229.404 16.1642C227.528 16.1642 225.991 16.784 224.798 18.02C223.604 19.2597 223.009 20.7691 223.009 22.552C223.009 24.3349 223.619 25.9136 224.841 27.1241C226.061 28.3345 227.685 28.9398 229.714 28.9398C231.591 28.9398 232.992 28.5825 233.912 27.8715V24.4114H229.601V20.5832H237.884V29.9534C237 30.8904 235.832 31.6123 234.376 32.1191C232.919 32.6259 231.375 32.8774 229.74 32.8774H229.744Z" fill="white"/>
<path d="M242.563 32.5389L251.185 12.5625H254.82L263.468 32.5389H259.186L257.24 27.9814H248.706L246.79 32.5389H242.563ZM252.984 17.9367L250.225 24.4083H255.718L252.984 17.9367Z" fill="white"/>
<path d="M269.352 32.5389V12.5625H273.437V28.6559H282V32.5389H269.352Z" fill="white"/>
<path d="M65.1342 34.1921C66.0285 34.8301 66.9337 35.5374 67.8244 36.2958L67.9886 36.4343H74.7561L73.7632 35.4426C72.3214 34.0025 70.7883 32.6498 69.2114 31.4284C64.2581 27.5965 58.7062 24.8328 52.7052 23.2176L42.7256 0H37.9475L27.9058 23.1994C21.7954 24.8365 16.1595 27.6512 11.1478 31.5706C9.81909 32.6061 8.51597 33.7436 7.28585 34.9431C7.11064 35.1072 6.94273 35.2749 6.77117 35.4463L5.77832 36.438H12.5567L12.721 36.2994C13.4401 35.6833 14.2212 35.0634 15.0462 34.4582C18.2474 32.1066 21.7479 30.2216 25.4638 28.8543L17.1742 47.9994H23.1022L31.7714 27.0642C37.2759 25.9558 43.16 25.9448 48.701 27.0532L57.4177 47.9994H63.3638L55.1363 28.8726C58.6916 30.1888 62.0498 31.9753 65.1378 34.1957L65.1342 34.1921ZM46.5948 21.9962C42.408 21.4348 38.057 21.4384 33.8556 22.0072L40.2216 6.67945L46.5948 21.9962Z" fill="#D5BA8C"/>
<path d="M12.2975 39.5328C12.2975 41.6366 10.5856 43.3465 8.47941 43.3465C6.37324 43.3465 4.65765 41.6366 4.65765 39.5328V38.9531H0V39.5328C0 44.1997 3.8035 47.9952 8.47576 47.9952C13.148 47.9952 16.9479 44.1997 16.9479 39.5328V38.9531H12.2939V39.5328H12.2975Z" fill="#D5BA8C"/>
<path d="M75.8803 38.9531V39.5328C75.8803 41.6366 74.1647 43.3465 72.0585 43.3465C69.9524 43.3465 68.2404 41.6366 68.2404 39.5328V38.9531H63.5864V39.5328C63.5864 44.1997 67.3863 47.9952 72.0585 47.9952C76.7308 47.9952 80.5343 44.1997 80.5343 39.5328V38.9531H75.8803Z" fill="#D5BA8C"/>
</svg>
