<svg width="282" height="48" viewBox="0 0 282 48" fill="none" xmlns="http://www.w3.org/2000/svg">
<path d="M97.9096 47.9965C96.2341 47.9965 94.8398 47.4606 93.7228 46.3923C92.6058 45.324 92.0474 43.9969 92.0474 42.4145C92.0474 40.8322 92.5839 39.5342 93.6535 38.455C94.723 37.3758 96.0808 36.8362 97.7271 36.8362C99.512 36.8362 100.965 37.4232 102.082 38.6008L100.545 40.1212C99.7931 39.3519 98.855 38.9654 97.7271 38.9654C96.7123 38.9654 95.8837 39.3009 95.2376 39.9681C94.5916 40.6389 94.2703 41.452 94.2703 42.4145C94.2703 43.3771 94.5989 44.2302 95.2595 44.8865C95.9202 45.5391 96.7963 45.8673 97.895 45.8673C98.9097 45.8673 99.6653 45.674 100.162 45.2912V43.4208H97.8329V41.3535H102.308V46.4178C101.83 46.9246 101.198 47.3147 100.414 47.5882C99.6288 47.8616 98.7929 48.0002 97.9096 48.0002V47.9965Z" fill="#D5BA8C"/>
<path d="M111.288 47.8135V37.0177H115.431C116.416 37.0177 117.216 37.3203 117.829 37.9292C118.442 38.5381 118.749 39.2964 118.749 40.2116C118.749 41.6299 118.008 42.5669 116.526 43.0263L120.409 47.8171H117.745L114.029 43.2706H113.496V47.8171H111.288V47.8135ZM113.496 41.3819H115.171C115.598 41.3819 115.934 41.2799 116.183 41.072C116.431 40.8642 116.555 40.5762 116.555 40.2116C116.555 39.847 116.431 39.5589 116.183 39.3511C115.934 39.1433 115.595 39.0412 115.171 39.0412H113.496V41.3819Z" fill="#D5BA8C"/>
<path d="M136.828 46.3614C135.736 47.4516 134.419 47.9948 132.878 47.9948C131.338 47.9948 130.02 47.4516 128.929 46.3614C127.837 45.2713 127.293 43.9551 127.293 42.4165C127.293 40.8779 127.837 39.5617 128.929 38.4715C130.02 37.3814 131.338 36.8381 132.878 36.8381C134.419 36.8381 135.736 37.3814 136.828 38.4715C137.919 39.5617 138.463 40.8779 138.463 42.4165C138.463 43.9551 137.919 45.2713 136.828 46.3614ZM130.495 44.8556C131.148 45.5302 131.944 45.8656 132.878 45.8656C133.813 45.8656 134.605 45.5302 135.262 44.8556C135.915 44.1811 136.244 43.3681 136.244 42.4165C136.244 41.4649 135.915 40.6518 135.262 39.9773C134.608 39.3028 133.813 38.9674 132.878 38.9674C131.944 38.9674 131.152 39.3028 130.495 39.9773C129.841 40.6518 129.513 41.4649 129.513 42.4165C129.513 43.3681 129.841 44.1848 130.495 44.8556Z" fill="#D5BA8C"/>
<path d="M151.509 47.9958C150.198 47.9958 149.14 47.5911 148.326 46.778C147.515 45.9686 147.106 44.893 147.106 43.5549V37.0177H149.315V43.5878C149.315 44.2987 149.512 44.8566 149.91 45.2613C150.304 45.666 150.837 45.8701 151.509 45.8701C152.18 45.8701 152.709 45.666 153.107 45.2613C153.502 44.8566 153.702 44.2987 153.702 43.5878V37.0177H155.911V43.5549C155.911 44.8821 155.498 45.954 154.677 46.7707C153.856 47.5874 152.801 47.9958 151.512 47.9958H151.509Z" fill="#D5BA8C"/>
<path d="M171.497 38.0607C172.22 38.7571 172.578 39.6212 172.578 40.653C172.578 41.6848 172.216 42.5526 171.497 43.2453C170.778 43.938 169.873 44.288 168.789 44.288H167.402V47.8174H165.193V37.0216H168.785C169.869 37.0216 170.775 37.368 171.494 38.0644L171.497 38.0607ZM169.975 41.776C170.282 41.4806 170.431 41.1087 170.431 40.6494C170.431 40.19 170.278 39.8181 169.975 39.5227C169.672 39.2274 169.263 39.0816 168.756 39.0816H167.402V42.2135H168.756C169.263 42.2135 169.669 42.0676 169.975 41.7723V41.776Z" fill="#D5BA8C"/>
<path d="M92.0474 32.5426L100.669 12.5662H104.305L112.952 32.5426H108.67L106.725 27.9851H98.1906L96.2743 32.5426H92.0474ZM102.469 17.9404L99.7091 24.412H105.203L102.469 17.9404Z" fill="#011E41"/>
<path d="M117.682 32.5426V29.7571L127.231 16.4492H117.85V12.5662H132.754V15.3518L123.146 28.6596H132.951V32.5426H117.682Z" fill="#011E41"/>
<path d="M139.908 32.5426V12.5662H152.359V16.4492H143.993V20.5582H150.669V24.4412H143.993V28.6633H152.359V32.5462H139.908V32.5426Z" fill="#011E41"/>
<path d="M159.572 32.5426V12.5662H167.234C169.055 12.5662 170.534 13.1277 171.673 14.2543C172.808 15.3809 173.377 16.7883 173.377 18.4764C173.377 21.1015 172.005 22.837 169.264 23.6828L176.447 32.5462H171.519L164.646 24.1313H163.66V32.5462H159.576L159.572 32.5426ZM163.657 20.6421H166.756C167.544 20.6421 168.168 20.4489 168.628 20.066C169.088 19.6832 169.318 19.1509 169.318 18.4764C169.318 17.8019 169.088 17.2732 168.628 16.8867C168.168 16.5039 167.544 16.3107 166.756 16.3107H163.657V20.6457V20.6421Z" fill="#011E41"/>
<path d="M181.714 32.5426V12.5662H185.799V28.6596H194.362V32.5426H181.714Z" fill="#011E41"/>
<path d="M200.896 32.5426V12.5662H213.347V16.4492H204.981V20.5582H211.657V24.4412H204.981V28.6633H213.347V32.5462H200.896V32.5426Z" fill="#011E41"/>
<path d="M229.744 32.8794C226.645 32.8794 224.064 31.8913 221.998 29.9116C219.932 27.9318 218.899 25.478 218.899 22.5539C218.899 19.6299 219.888 17.2199 221.87 15.2255C223.852 13.2275 226.364 12.2285 229.404 12.2285C232.711 12.2285 235.394 13.315 237.46 15.4917L234.617 18.3064C233.226 16.8808 231.488 16.1662 229.404 16.1662C227.528 16.1662 225.991 16.786 224.798 18.022C223.604 19.2616 223.009 20.7711 223.009 22.5539C223.009 24.3368 223.619 25.9155 224.841 27.126C226.061 28.3365 227.685 28.9417 229.714 28.9417C231.591 28.9417 232.992 28.5844 233.912 27.8734V24.4134H229.601V20.5851H237.884V29.9553C237 30.8923 235.832 31.6142 234.376 32.121C232.919 32.6278 231.375 32.8794 229.74 32.8794H229.744Z" fill="#011E41"/>
<path d="M242.563 32.5426L251.185 12.5662H254.82L263.468 32.5426H259.186L257.24 27.9851H248.706L246.79 32.5426H242.563ZM252.984 17.9404L250.225 24.412H255.718L252.984 17.9404Z" fill="#011E41"/>
<path d="M269.352 32.5426V12.5662H273.437V28.6596H282V32.5426H269.352Z" fill="#011E41"/>
<path d="M65.1342 34.1921C66.0285 34.8301 66.9337 35.5374 67.8244 36.2958L67.9886 36.4343H74.7561L73.7632 35.4426C72.3214 34.0025 70.7883 32.6498 69.2114 31.4284C64.2581 27.5965 58.7062 24.8328 52.7052 23.2176L42.7256 0H37.9475L27.9058 23.1994C21.7954 24.8365 16.1595 27.6512 11.1478 31.5706C9.81909 32.6061 8.51597 33.7436 7.28585 34.9431C7.11064 35.1072 6.94273 35.2749 6.77117 35.4463L5.77832 36.438H12.5567L12.721 36.2994C13.4401 35.6833 14.2212 35.0634 15.0462 34.4582C18.2474 32.1066 21.7479 30.2216 25.4638 28.8543L17.1742 47.9994H23.1022L31.7714 27.0642C37.2759 25.9558 43.16 25.9448 48.701 27.0532L57.4177 47.9994H63.3638L55.1363 28.8726C58.6916 30.1888 62.0498 31.9753 65.1378 34.1957L65.1342 34.1921ZM46.5948 21.9962C42.408 21.4348 38.057 21.4384 33.8556 22.0072L40.2216 6.67945L46.5948 21.9962Z" fill="#D5BA8C"/>
<path d="M12.2975 39.5348C12.2975 41.6385 10.5856 43.3485 8.47941 43.3485C6.37324 43.3485 4.65765 41.6385 4.65765 39.5348V38.9551H0V39.5348C0 44.2017 3.8035 47.9971 8.47576 47.9971C13.148 47.9971 16.9479 44.2017 16.9479 39.5348V38.9551H12.2939V39.5348H12.2975Z" fill="#D5BA8C"/>
<path d="M75.8803 38.9551V39.5348C75.8803 41.6385 74.1647 43.3485 72.0585 43.3485C69.9524 43.3485 68.2404 41.6385 68.2404 39.5348V38.9551H63.5864V39.5348C63.5864 44.2017 67.3863 47.9971 72.0585 47.9971C76.7308 47.9971 80.5343 44.2017 80.5343 39.5348V38.9551H75.8803Z" fill="#D5BA8C"/>
</svg>
